<svg width="26" height="26" viewBox="0 0 26 26" fill="none" xmlns="http://www.w3.org/2000/svg">
  <path
    d="M0.705635 25.295C0.264168 24.8535 0.260172 24.1409 0.696713 23.7044L21.2243 3.17678L5.04427 3.22091C4.89403 3.22558 4.74404 3.20007 4.60318 3.14588C4.46231 3.09169 4.33342 3.00993 4.22413 2.90542C4.11485 2.80091 4.02738 2.67578 3.96691 2.53743C3.90644 2.39908 3.87419 2.25032 3.87207 2.09995C3.86996 1.94958 3.89801 1.80065 3.95457 1.66196C4.01114 1.52328 4.09507 1.39766 4.2014 1.29253C4.30773 1.1874 4.4343 1.10489 4.57363 1.0499C4.71296 0.9949 4.86221 0.968526 5.01257 0.972335L23.9252 0.919988L23.9589 0.91954C24.1252 0.921498 24.2894 0.960464 24.4396 1.03361C24.5898 1.10675 24.7222 1.21223 24.8271 1.34241C24.9997 1.55463 25.0898 1.82153 25.0807 2.09329L25.0277 20.9874C25.0315 21.1378 25.0051 21.287 24.9501 21.4264C24.8951 21.5657 24.8126 21.6923 24.7075 21.7986C24.6023 21.9049 24.4767 21.9889 24.338 22.0454C24.1993 22.102 24.0504 22.13 23.9 22.1279C23.7497 22.1258 23.6009 22.0936 23.4626 22.0331C23.3242 21.9726 23.1991 21.8851 23.0946 21.7759C22.9901 21.6666 22.9083 21.5377 22.8541 21.3968C22.7999 21.2559 22.7744 21.106 22.7791 20.9557L22.8232 4.77566L2.29559 25.3033C1.85905 25.7398 1.14774 25.7371 0.705635 25.295Z"
    fill="url(#paint0_linear_45_2144)" />
  <defs>
    <linearGradient id="paint0_linear_45_2144" x1="14.3317" y1="0.0535661" x2="7.3448" y2="21.4736"
      gradientUnits="userSpaceOnUse">
      <stop offset="0.114" stop-color="#FFE600" />
      <stop offset="0.8753" stop-color="#C4F23E" />
    </linearGradient>
  </defs>
</svg>