<svg width="13" height="8" viewBox="0 0 13 8" fill="none" xmlns="http://www.w3.org/2000/svg">
<path d="M6.01917 6L11.2068 0.863548C11.2494 0.817637 11.3009 0.780747 11.358 0.755059C11.4152 0.729371 11.4769 0.715405 11.5396 0.713989C11.6022 0.712573 11.6645 0.723736 11.7228 0.746816C11.7811 0.769896 11.8341 0.804426 11.8788 0.848362C11.9235 0.892299 11.9589 0.94475 11.983 1.00261C12.007 1.06048 12.0193 1.12258 12.0189 1.18525C12.0186 1.24792 12.0056 1.30988 11.9809 1.36747C11.9562 1.42507 11.9202 1.47712 11.875 1.52055L6.3479 7.14105L6.33815 7.15117C6.28884 7.19988 6.22929 7.237 6.16385 7.25983C6.0984 7.28267 6.02869 7.29064 5.95978 7.28317C5.84701 7.27142 5.74238 7.21904 5.6654 7.1358L0.143903 1.52055C0.0987239 1.47711 0.0627113 1.42506 0.0379968 1.36747C0.0132823 1.30988 0.000367692 1.24792 1.57921e-05 1.18525C-0.000336108 1.12258 0.0118824 1.06048 0.0359483 1.00261C0.0600143 0.944749 0.0954386 0.892298 0.140128 0.848361C0.184817 0.804425 0.237863 0.769895 0.296128 0.746815C0.354393 0.723735 0.416694 0.712573 0.479348 0.713988C0.542001 0.715404 0.603736 0.72937 0.6609 0.755058C0.718063 0.780746 0.769494 0.817636 0.812152 0.863547L6.01917 6Z" fill="white"/>
</svg>
