<svg width="24" height="25" viewBox="0 0 24 25" fill="none" xmlns="http://www.w3.org/2000/svg">
  <path
    d="M9.00015 17.0712L5.53015 13.6012C5.34317 13.4142 5.08957 13.3092 4.82515 13.3092C4.56072 13.3092 4.30712 13.4142 4.12015 13.6012C3.93317 13.7882 3.82813 14.0418 3.82812 14.3062C3.82813 14.4371 3.85391 14.5668 3.90402 14.6877C3.95412 14.8087 4.02756 14.9186 4.12015 15.0112L8.30015 19.1912C8.69015 19.5812 9.32015 19.5812 9.71015 19.1912L20.2901 8.6112C20.4771 8.42422 20.5822 8.17063 20.5822 7.9062C20.5822 7.64177 20.4771 7.38818 20.2901 7.2012C20.1032 7.01422 19.8496 6.90918 19.5851 6.90918C19.3207 6.90918 19.0671 7.01422 18.8801 7.2012L9.00015 17.0712Z"
    fill="#141414" />
</svg>