<svg width="96" height="96" viewBox="0 0 96 96" fill="none" xmlns="http://www.w3.org/2000/svg">
<g filter="url(#filter0_d_436_75)">
<path d="M48 20C32.5603 20 20 32.5603 20 48C20 63.4397 32.5603 76 48 76C63.4397 76 76 63.4397 76 48C76 32.5603 63.4397 20 48 20ZM44.836 45.1067L51.9317 46.2897C55.063 46.81 57.3333 49.4933 57.3333 52.6667C57.3333 56.526 54.1927 59.6667 50.3333 59.6667V64.3333H45.6667V59.6667C41.8073 59.6667 38.6667 56.526 38.6667 52.6667H43.3333C43.3333 53.9547 44.3787 55 45.6667 55H50.3333C51.6213 55 52.6667 53.9547 52.6667 52.6667C52.6667 51.7847 52.0343 51.038 51.164 50.8933L44.0683 49.7103C40.937 49.19 38.6667 46.5067 38.6667 43.3333C38.6667 39.474 41.8073 36.3333 45.6667 36.3333V31.6667H50.3333V36.3333C54.1927 36.3333 57.3333 39.474 57.3333 43.3333H52.6667C52.6667 42.0477 51.6213 41 50.3333 41H45.6667C44.3787 41 43.3333 42.0477 43.3333 43.3333C43.3333 44.2153 43.9657 44.962 44.836 45.1067Z" fill="url(#paint0_linear_436_75)"/>
</g>
<defs>
<filter id="filter0_d_436_75" x="0" y="0" width="96" height="96" filterUnits="userSpaceOnUse" color-interpolation-filters="sRGB">
<feFlood flood-opacity="0" result="BackgroundImageFix"/>
<feColorMatrix in="SourceAlpha" type="matrix" values="0 0 0 0 0 0 0 0 0 0 0 0 0 0 0 0 0 0 127 0" result="hardAlpha"/>
<feOffset/>
<feGaussianBlur stdDeviation="10"/>
<feComposite in2="hardAlpha" operator="out"/>
<feColorMatrix type="matrix" values="0 0 0 0 0.768627 0 0 0 0 0.94902 0 0 0 0 0.243137 0 0 0 0.5 0"/>
<feBlend mode="normal" in2="BackgroundImageFix" result="effect1_dropShadow_436_75"/>
<feBlend mode="normal" in="SourceGraphic" in2="effect1_dropShadow_436_75" result="shape"/>
</filter>
<linearGradient id="paint0_linear_436_75" x1="32.1407" y1="30.7331" x2="47.3273" y2="65.7764" gradientUnits="userSpaceOnUse">
<stop offset="0.114" stop-color="#FFE600"/>
<stop offset="0.8753" stop-color="#C4F23E"/>
</linearGradient>
</defs>
</svg>
