<svg width="58" height="58" viewBox="0 0 58 58" fill="none" xmlns="http://www.w3.org/2000/svg">
<path d="M29 57C21.5227 57 14.4911 54.0898 9.20066 48.7993C3.91018 43.5089 1 36.4773 1 29C1 21.5227 3.91018 14.4911 9.20066 9.20066C14.4911 3.91018 21.5227 1 29 1C36.4773 1 43.5089 3.91018 48.7993 9.20066C54.0898 14.4911 57 21.5227 57 29C57 36.4773 54.0898 43.5089 48.7993 48.7993C43.5089 54.0814 36.4773 57 29 57ZM29 1.58877C21.6825 1.58877 14.7939 4.44007 9.62121 9.6128C4.44007 14.7939 1.58877 21.6741 1.58877 29C1.58877 36.3175 4.44007 43.2061 9.6128 48.3788C14.7855 53.5515 21.6741 56.4028 28.9916 56.4028C36.3091 56.4028 43.1977 53.5515 48.3704 48.3788C53.5431 43.2061 56.3944 36.3175 56.3944 29C56.3944 21.6825 53.5431 14.7939 48.3704 9.62121C43.2061 4.44007 36.3175 1.58877 29 1.58877Z" fill="url(#paint0_linear_45_2213)" stroke="url(#paint1_linear_45_2213)" stroke-width="0.5"/>
<path d="M16.0352 21.7357C16.2799 20.7225 17.1284 19.9586 18.1564 19.8257C18.2543 19.8091 18.3522 19.8091 18.4501 19.8091H38.5525C38.6667 19.8091 38.7646 19.8257 38.8462 19.8257C39.8905 19.9586 40.7389 20.7392 40.9837 21.7855L41 21.8685L40.9837 36.7164V36.8327L40.951 36.9489C40.6573 38.0451 39.6783 38.8091 38.5525 38.8091H18.4501C17.3405 38.8091 16.3615 38.0451 16.0515 36.9489L16.0188 36.8327V36.7164C15.9862 21.9682 16.0025 21.8851 16.0188 21.8021L16.0352 21.7357ZM17.6505 23.9612C17.6505 26.4192 17.6505 30.7042 17.6668 34.1753L23.6225 28.1133L17.6505 23.9612ZM38.5525 21.4699H18.4501C18.4174 21.4699 18.3848 21.4699 18.3522 21.4699C18.0748 21.5031 17.83 21.6858 17.6995 21.935L28.5013 29.4586L39.3194 21.9516C39.1888 21.7024 38.9441 21.5197 38.6667 21.4865C38.6341 21.4865 38.5851 21.4699 38.5525 21.4699ZM17.6668 36.5836C17.7974 36.9157 18.1074 37.1316 18.4501 37.1316H38.5525C38.8951 37.1316 39.2051 36.9157 39.3357 36.5836V36.5503L31.9768 29.06L28.4849 31.4848L25.0094 29.0766L17.6505 36.5503V36.5836H17.6668ZM33.38 28.1133L39.352 34.1753V23.9612L33.38 28.1133Z" fill="url(#paint2_linear_45_2213)"/>
<defs>
<linearGradient id="paint0_linear_45_2213" x1="13.1407" y1="11.7331" x2="28.3273" y2="46.7764" gradientUnits="userSpaceOnUse">
<stop offset="0.114" stop-color="#FFE600"/>
<stop offset="0.8753" stop-color="#C4F23E"/>
</linearGradient>
<linearGradient id="paint1_linear_45_2213" x1="13.1407" y1="11.7331" x2="28.3273" y2="46.7764" gradientUnits="userSpaceOnUse">
<stop offset="0.114" stop-color="#FFE600"/>
<stop offset="0.8753" stop-color="#C4F23E"/>
</linearGradient>
<linearGradient id="paint2_linear_45_2213" x1="35.58" y1="23.4507" x2="31.3838" y2="36.1913" gradientUnits="userSpaceOnUse">
<stop offset="0.114" stop-color="#FFE600"/>
<stop offset="0.8753" stop-color="#C4F23E"/>
</linearGradient>
</defs>
</svg>
