<svg
        width="96"
        height="88"
        viewBox="0 0 96 88"
        fill="none"
        xmlns="http://www.w3.org/2000/svg"
      >
        <g filter="url(#filter0_d_343_51)">
          <path
            d="M31.6667 67.3333C32.9044 67.3333 34.0914 66.8416 34.9665 65.9665C35.8417 65.0913 36.3334 63.9043 36.3334 62.6666V48.6666C36.3334 47.429 35.8417 46.242 34.9665 45.3668C34.0914 44.4916 32.9044 44 31.6667 44V41.6666C31.6667 37.3348 33.3875 33.1803 36.4506 30.1172C39.5137 27.0541 43.6682 25.3333 48 25.3333C52.3319 25.3333 56.4864 27.0541 59.5495 30.1172C62.6126 33.1803 64.3334 37.3348 64.3334 41.6666V44C63.0957 44 61.9087 44.4916 61.0336 45.3668C60.1584 46.242 59.6667 47.429 59.6667 48.6666V62.6666H52.6667C52.0479 62.6666 51.4544 62.9125 51.0168 63.35C50.5792 63.7876 50.3334 64.3811 50.3334 65C50.3334 65.6188 50.5792 66.2123 51.0168 66.6499C51.4544 67.0875 52.0479 67.3333 52.6667 67.3333H64.3334C67.0074 67.3253 69.5975 66.399 71.6702 64.7094C73.7428 63.0197 75.1721 60.6694 75.7188 58.0519C76.2654 55.4343 75.8964 52.7084 74.6733 50.3304C73.4502 47.9525 71.4473 46.0669 69 44.9893V41.6666C69 36.0971 66.7876 30.7556 62.8493 26.8174C58.911 22.8791 53.5696 20.6666 48 20.6666C42.4305 20.6666 37.0891 22.8791 33.1508 26.8174C29.2125 30.7556 27 36.0971 27 41.6666V44.9893C24.5528 46.0669 22.5499 47.9525 21.3268 50.3304C20.1037 52.7084 19.7347 55.4343 20.2813 58.0519C20.828 60.6694 22.2573 63.0197 24.3299 64.7094C26.4026 66.399 28.9927 67.3253 31.6667 67.3333Z"
            fill="url(#paint0_linear_343_51)"
          />
        </g>
        <defs>
          <filter
            id="filter0_d_343_51"
            x="0"
            y="-4"
            width="96"
            height="96"
            filterUnits="userSpaceOnUse"
            color-interpolation-filters="sRGB"
          >
            <feFlood flood-opacity="0" result="BackgroundImageFix" />
            <feColorMatrix
              in="SourceAlpha"
              type="matrix"
              values="0 0 0 0 0 0 0 0 0 0 0 0 0 0 0 0 0 0 127 0"
              result="hardAlpha"
            />
            <feOffset />
            <feGaussianBlur stdDeviation="10" />
            <feComposite in2="hardAlpha" operator="out" />
            <feColorMatrix
              type="matrix"
              values="0 0 0 0 0.768627 0 0 0 0 0.94902 0 0 0 0 0.243137 0 0 0 0.5 0"
            />
            <feBlend
              mode="normal"
              in2="BackgroundImageFix"
              result="effect1_dropShadow_343_51"
            />
            <feBlend
              mode="normal"
              in="SourceGraphic"
              in2="effect1_dropShadow_343_51"
              result="shape"
            />
          </filter>
          <linearGradient
            id="paint0_linear_343_51"
            x1="32.1605"
            y1="29.6108"
            x2="43.2527"
            y2="60.2872"
            gradientUnits="userSpaceOnUse"
          >
            <stop offset="0.114" stop-color="#FFE600" />
            <stop offset="0.8753" stop-color="#C4F23E" />
          </linearGradient>
        </defs>
      </svg>