<svg width="26" height="16" viewBox="0 0 26 16" fill="none" xmlns="http://www.w3.org/2000/svg">
<g clip-path="url(#clip0_103_128)">
<path opacity="0.6" d="M15.598 7.9998L13 5.33521L10.402 7.9998L13 10.6644L15.598 7.9998Z" fill="#C4F23E"/>
<path opacity="0.4" d="M18.1981 10.6519L15.6001 7.9873L13.0021 10.6519L15.6001 13.3165L18.1981 10.6519Z" fill="#C4F23E"/>
<path opacity="0.2" d="M20.7982 13.3331L18.2002 10.6685L15.6022 13.3331L18.2002 15.9976L20.7982 13.3331Z" fill="#C4F23E"/>
<path opacity="0.4" d="M12.9981 10.6519L10.4001 7.9873L7.80217 10.6519L10.4001 13.3165L12.9981 10.6519Z" fill="#C4F23E"/>
<path opacity="0.2" d="M10.398 13.3333L7.80005 10.6687L5.20207 13.3333L7.80005 15.9979L10.398 13.3333Z" fill="#C4F23E"/>
<path d="M15.598 2.66655L13 0.00195312L10.402 2.66655L13 5.33114L15.598 2.66655Z" fill="#C4F23E"/>
<path opacity="0.8" d="M18.1981 5.31865L15.6001 2.65405L13.0021 5.31865L15.6001 7.98324L18.1981 5.31865Z" fill="#C4F23E"/>
<path opacity="0.6" d="M20.7979 7.9998L18.2 5.33521L15.602 7.9998L18.2 10.6644L20.7979 7.9998Z" fill="#C4F23E"/>
<path opacity="0.4" d="M23.398 10.6519L20.8 7.9873L18.2021 10.6519L20.8 13.3165L23.398 10.6519Z" fill="#C4F23E"/>
<path opacity="0.2" d="M25.9981 13.333L23.4001 10.6685L20.8022 13.3331L23.4001 15.9976L25.9981 13.333Z" fill="#C4F23E"/>
<path opacity="0.8" d="M12.9981 5.31865L10.4001 2.65405L7.80217 5.31865L10.4001 7.98324L12.9981 5.31865Z" fill="#C4F23E"/>
<path opacity="0.6" d="M10.398 7.9998L7.80005 5.33521L5.20207 7.9998L7.80005 10.6644L10.398 7.9998Z" fill="#C4F23E"/>
<path opacity="0.4" d="M7.79793 10.6521L5.19995 7.98755L2.60197 10.6521L5.19995 13.3167L7.79793 10.6521Z" fill="#C4F23E"/>
<path opacity="0.2" d="M5.19808 13.3333L2.6001 10.6687L0.0021191 13.3333L2.6001 15.9979L5.19808 13.3333Z" fill="#C4F23E"/>
</g>
<defs>
<clipPath id="clip0_103_128">
<rect width="26" height="16" fill="white"/>
</clipPath>
</defs>
</svg>
