<svg width="88" height="74" viewBox="0 0 88 74" fill="none" xmlns="http://www.w3.org/2000/svg">
<g filter="url(#filter0_d_436_68)">
<path d="M67.628 49.6V24.4C67.628 22.076 65.752 20.2 63.428 20.2H24.2C21.876 20.2 20 22.076 20 24.4V49.6C20 51.924 21.876 53.7999 24.2 53.7999H63.428C65.752 53.7999 67.628 51.924 67.628 49.6ZM63.96 24.092C64.884 25.016 64.38 25.968 63.876 26.444L52.508 36.86L63.428 48.228C63.764 48.62 63.988 49.236 63.596 49.656C63.232 50.104 62.392 50.076 62.028 49.7959L49.792 39.352L43.8 44.812L37.836 39.352L25.6 49.7959C25.236 50.076 24.396 50.104 24.032 49.656C23.64 49.236 23.864 48.62 24.2 48.228L35.12 36.86L23.752 26.444C23.248 25.968 22.744 25.016 23.668 24.092C24.592 23.168 25.544 23.616 26.328 24.288L43.8 38.4L61.3 24.288C62.084 23.616 63.036 23.168 63.96 24.092Z" fill="url(#paint0_linear_436_68)"/>
</g>
<defs>
<filter id="filter0_d_436_68" x="-4" y="-11" width="96" height="96" filterUnits="userSpaceOnUse" color-interpolation-filters="sRGB">
<feFlood flood-opacity="0" result="BackgroundImageFix"/>
<feColorMatrix in="SourceAlpha" type="matrix" values="0 0 0 0 0 0 0 0 0 0 0 0 0 0 0 0 0 0 127 0" result="hardAlpha"/>
<feOffset/>
<feGaussianBlur stdDeviation="10"/>
<feComposite in2="hardAlpha" operator="out"/>
<feColorMatrix type="matrix" values="0 0 0 0 0.768627 0 0 0 0 0.94902 0 0 0 0 0.243137 0 0 0 0.5 0"/>
<feBlend mode="normal" in2="BackgroundImageFix" result="effect1_dropShadow_436_68"/>
<feBlend mode="normal" in="SourceGraphic" in2="effect1_dropShadow_436_68" result="shape"/>
</filter>
<linearGradient id="paint0_linear_436_68" x1="30.3257" y1="26.6398" x2="37.3084" y2="49.4798" gradientUnits="userSpaceOnUse">
<stop offset="0.114" stop-color="#FFE600"/>
<stop offset="0.8753" stop-color="#C4F23E"/>
</linearGradient>
</defs>
</svg>
