<svg width="96" height="96" viewBox="0 0 96 96" fill="none" xmlns="http://www.w3.org/2000/svg">
<g filter="url(#filter0_d_436_336)">
<path d="M37.5 50.3333C35.4233 50.3333 33.3932 49.7175 31.6665 48.5638C29.9398 47.41 28.594 45.7701 27.7993 43.8515C27.0045 41.9329 26.7966 39.8217 27.2018 37.7849C27.6069 35.7481 28.6069 33.8772 30.0754 32.4087C31.5438 30.9403 33.4148 29.9402 35.4516 29.5351C37.4884 29.1299 39.5996 29.3379 41.5182 30.1326C43.4368 30.9273 45.0767 32.2731 46.2304 33.9999C47.3842 35.7266 48 37.7566 48 39.8333C47.9969 42.6172 46.8897 45.2861 44.9212 47.2546C42.9527 49.223 40.2838 50.3303 37.5 50.3333ZM52.6667 76H22.3333C21.7145 76 21.121 75.7542 20.6834 75.3166C20.2458 74.879 20 74.2855 20 73.6667V72.5C20 67.8587 21.8437 63.4075 25.1256 60.1256C28.4075 56.8438 32.8587 55 37.5 55C42.1413 55 46.5925 56.8438 49.8744 60.1256C53.1563 63.4075 55 67.8587 55 72.5V73.6667C55 74.2855 54.7542 74.879 54.3166 75.3166C53.879 75.7542 53.2855 76 52.6667 76ZM60.8333 41C58.7566 41 56.7266 40.3842 54.9998 39.2304C53.2731 38.0767 51.9273 36.4368 51.1326 34.5182C50.3379 32.5996 50.1299 30.4884 50.5351 28.4516C50.9402 26.4148 51.9403 24.5438 53.4087 23.0754C54.8772 21.6069 56.7481 20.6069 58.7849 20.2018C60.8217 19.7966 62.9329 20.0045 64.8515 20.7993C66.7701 21.594 68.41 22.9398 69.5638 24.6665C70.7175 26.3932 71.3333 28.4233 71.3333 30.5C71.3302 33.2838 70.223 35.9528 68.2545 37.9212C66.2861 39.8897 63.6172 40.9969 60.8333 41ZM57.5177 45.7157C55.3445 46.0072 53.2549 46.7445 51.3798 47.8811C49.5048 49.0178 47.8847 50.5294 46.621 52.3213C51.8498 54.6959 55.9581 58.9999 58.087 64.3333H73.6667C74.2855 64.3333 74.879 64.0875 75.3166 63.6499C75.7542 63.2123 76 62.6188 76 62V61.9113C75.9976 59.5855 75.499 57.2869 74.5376 55.1691C73.5762 53.0512 72.174 51.1628 70.4248 49.63C68.6755 48.0971 66.6194 46.9551 64.3936 46.2801C62.1678 45.6051 59.8237 45.4127 57.5177 45.7157Z" fill="url(#paint0_linear_436_336)"/>
</g>
<defs>
<filter id="filter0_d_436_336" x="0" y="0" width="96" height="96" filterUnits="userSpaceOnUse" color-interpolation-filters="sRGB">
<feFlood flood-opacity="0" result="BackgroundImageFix"/>
<feColorMatrix in="SourceAlpha" type="matrix" values="0 0 0 0 0 0 0 0 0 0 0 0 0 0 0 0 0 0 127 0" result="hardAlpha"/>
<feOffset/>
<feGaussianBlur stdDeviation="10"/>
<feComposite in2="hardAlpha" operator="out"/>
<feColorMatrix type="matrix" values="0 0 0 0 0.768627 0 0 0 0 0.94902 0 0 0 0 0.243137 0 0 0 0.5 0"/>
<feBlend mode="normal" in2="BackgroundImageFix" result="effect1_dropShadow_436_336"/>
<feBlend mode="normal" in="SourceGraphic" in2="effect1_dropShadow_436_336" result="shape"/>
</filter>
<linearGradient id="paint0_linear_436_336" x1="32.1407" y1="30.7331" x2="47.3273" y2="65.7764" gradientUnits="userSpaceOnUse">
<stop offset="0.114" stop-color="#FFE600"/>
<stop offset="0.8753" stop-color="#C4F23E"/>
</linearGradient>
</defs>
</svg>
