<svg width="11" height="12" viewBox="0 0 11 12" fill="none" xmlns="http://www.w3.org/2000/svg">
  <path
    d="M10.0764 5.31605L8.13848 7.0073L8.71899 9.52526C8.74971 9.6569 8.74095 9.79466 8.69379 9.92134C8.64664 10.048 8.56319 10.158 8.45388 10.2375C8.34457 10.317 8.21424 10.3625 8.0792 10.3684C7.94416 10.3742 7.81039 10.3401 7.69462 10.2703L5.49849 8.93831L3.30708 10.2703C3.19131 10.3401 3.05754 10.3742 2.9225 10.3684C2.78746 10.3625 2.65713 10.317 2.54782 10.2375C2.43851 10.158 2.35506 10.048 2.3079 9.92134C2.26075 9.79466 2.25199 9.6569 2.2827 9.52526L2.86235 7.00987L0.924033 5.31605C0.821513 5.22763 0.747381 5.11091 0.710932 4.98052C0.674483 4.85014 0.677341 4.7119 0.719146 4.58313C0.760951 4.45437 0.839843 4.34081 0.945929 4.2567C1.05201 4.17259 1.18057 4.12168 1.31548 4.11034L3.8704 3.88905L4.8677 1.5103C4.91979 1.38549 5.00763 1.27887 5.12018 1.20388C5.23273 1.12888 5.36496 1.08887 5.5002 1.08887C5.63545 1.08887 5.76768 1.12888 5.88023 1.20388C5.99278 1.27887 6.08062 1.38549 6.1327 1.5103L7.13302 3.88905L9.68708 4.11034C9.82199 4.12168 9.95054 4.17259 10.0566 4.2567C10.1627 4.34081 10.2416 4.45437 10.2834 4.58313C10.3252 4.7119 10.3281 4.85014 10.2916 4.98052C10.2552 5.11091 10.181 5.22763 10.0785 5.31605H10.0764Z"
    fill="url(#paint0_linear_104_2184)" />
  <defs>
    <linearGradient id="paint0_linear_104_2184" x1="2.77364" y1="2.86752" x2="5.22628" y2="8.7413"
      gradientUnits="userSpaceOnUse">
      <stop offset="0.114" stop-color="#FFE600" />
      <stop offset="0.8753" stop-color="#C4F23E" />
    </linearGradient>
  </defs>
</svg>