<svg width="58" height="58" viewBox="0 0 58 58" fill="none" xmlns="http://www.w3.org/2000/svg">
<path d="M29 57C21.5227 57 14.4911 54.0898 9.20066 48.7993C3.91018 43.5089 1 36.4773 1 29C1 21.5227 3.91018 14.4911 9.20066 9.20066C14.4911 3.91018 21.5227 1 29 1C36.4773 1 43.5089 3.91018 48.7993 9.20066C54.0898 14.4911 57 21.5227 57 29C57 36.4773 54.0898 43.5089 48.7993 48.7993C43.5089 54.0814 36.4773 57 29 57ZM29 1.58877C21.6825 1.58877 14.7939 4.44007 9.62121 9.6128C4.44007 14.7939 1.58877 21.6741 1.58877 29C1.58877 36.3175 4.44007 43.2061 9.6128 48.3788C14.7855 53.5515 21.6741 56.4028 28.9916 56.4028C36.3091 56.4028 43.1977 53.5515 48.3704 48.3788C53.5431 43.2061 56.3944 36.3175 56.3944 29C56.3944 21.6825 53.5431 14.7939 48.3704 9.62121C43.2061 4.44007 36.3175 1.58877 29 1.58877Z" fill="url(#paint0_linear_45_2196)" stroke="url(#paint1_linear_45_2196)" stroke-width="0.5"/>
<path d="M36.5361 41.9442C36.2165 41.9442 35.8801 41.8685 35.5268 41.7087L35.4932 41.6919L29.1766 36.8556L25.1814 40.4975C25.0132 40.6237 24.6263 40.7919 24.231 40.6405C24.0039 40.5816 23.6842 40.262 23.3478 39.2107C23.003 38.1172 21.3544 32.7258 21.0684 31.7754L14.7771 29.6558C14.7266 29.639 13.6164 29.2353 13.4986 28.3017C13.3808 27.3344 14.6845 26.855 14.8023 26.8129L40.3715 16.7871C40.5313 16.7198 41.7257 16.2236 42.4154 16.6778C42.6257 16.8123 42.878 17.0983 42.878 17.6619V17.6871L42.8696 17.7123L38.3109 40.6994L38.3024 40.7246C38.294 40.7583 37.9828 41.4984 37.2258 41.8096C37.0072 41.9022 36.7801 41.9442 36.5361 41.9442ZM35.7876 41.1872C36.2418 41.3807 36.6539 41.4059 36.9988 41.2713C37.4698 41.0863 37.6969 40.6321 37.7473 40.5312L42.2892 17.6282C42.2808 17.2834 42.1378 17.1908 42.0958 17.1656C41.7257 16.9217 40.8678 17.2077 40.5986 17.3254L40.5902 17.3338L15.0042 27.3512H14.9957C14.7434 27.4354 14.0285 27.7886 14.079 28.2176C14.1462 28.7895 14.9621 29.0923 14.9705 29.0923L20.8582 31.0773L20.7909 30.867L21.489 31.3044L21.346 31.5231L21.5815 31.4474C21.5983 31.5147 23.5244 37.8313 23.9029 39.0256C24.1553 39.8247 24.3571 40.0349 24.3992 40.0686L24.4244 40.077C24.5926 40.1527 24.7608 40.0518 24.8029 40.0265L29.1261 36.0818L35.7876 41.1872Z" fill="url(#paint2_linear_45_2196)" stroke="url(#paint3_linear_45_2196)" stroke-width="0.5"/>
<path d="M24.6515 40.052L24.2394 38.7147C23.4572 36.1494 22.6581 33.5504 21.96 31.2626L21.8339 30.8589L36.5951 21.4891C36.8642 21.3209 37.3604 21.077 37.6801 21.2704C37.7642 21.3209 37.8819 21.4302 37.9072 21.6489C37.9156 21.6826 37.924 21.7162 37.9324 21.7499C37.9576 21.9601 37.823 22.1872 37.495 22.49C37.0408 22.919 26.5692 32.3308 25.4422 33.3401L24.6515 40.052ZM22.532 31.1028C23.1039 32.9869 23.7516 35.0812 24.3908 37.1923L24.8786 33.0457L24.9627 32.97C25.0805 32.8691 36.6203 22.49 37.0913 22.0526C37.2091 21.9433 37.2763 21.8592 37.31 21.8171V21.8003C37.2006 21.834 37.0324 21.9013 36.8978 21.9854L22.532 31.1028Z" fill="url(#paint4_linear_45_2196)" stroke="url(#paint5_linear_45_2196)" stroke-width="0.5"/>
<defs>
<linearGradient id="paint0_linear_45_2196" x1="13.1407" y1="11.7331" x2="28.3273" y2="46.7764" gradientUnits="userSpaceOnUse">
<stop offset="0.114" stop-color="#FFE600"/>
<stop offset="0.8753" stop-color="#C4F23E"/>
</linearGradient>
<linearGradient id="paint1_linear_45_2196" x1="13.1407" y1="11.7331" x2="28.3273" y2="46.7764" gradientUnits="userSpaceOnUse">
<stop offset="0.114" stop-color="#FFE600"/>
<stop offset="0.8753" stop-color="#C4F23E"/>
</linearGradient>
<linearGradient id="paint2_linear_45_2196" x1="19.8621" y1="21.3672" x2="26.0878" y2="37.9515" gradientUnits="userSpaceOnUse">
<stop offset="0.114" stop-color="#FFE600"/>
<stop offset="0.8753" stop-color="#C4F23E"/>
</linearGradient>
<linearGradient id="paint3_linear_45_2196" x1="19.8621" y1="21.3672" x2="26.0878" y2="37.9515" gradientUnits="userSpaceOnUse">
<stop offset="0.114" stop-color="#FFE600"/>
<stop offset="0.8753" stop-color="#C4F23E"/>
</linearGradient>
<linearGradient id="paint4_linear_45_2196" x1="25.3247" y1="24.8126" x2="30.9793" y2="35.9566" gradientUnits="userSpaceOnUse">
<stop offset="0.114" stop-color="#FFE600"/>
<stop offset="0.8753" stop-color="#C4F23E"/>
</linearGradient>
<linearGradient id="paint5_linear_45_2196" x1="25.3247" y1="24.8126" x2="30.9793" y2="35.9566" gradientUnits="userSpaceOnUse">
<stop offset="0.114" stop-color="#FFE600"/>
<stop offset="0.8753" stop-color="#C4F23E"/>
</linearGradient>
</defs>
</svg>
