<svg width="58" height="58" viewBox="0 0 58 58" fill="none" xmlns="http://www.w3.org/2000/svg">
<path d="M29 57C21.5227 57 14.4911 54.0898 9.20066 48.7993C3.91018 43.5089 1 36.4773 1 29C1 21.5227 3.91018 14.4911 9.20066 9.20066C14.4911 3.91018 21.5227 1 29 1C36.4773 1 43.5089 3.91018 48.7993 9.20066C54.0898 14.4911 57 21.5227 57 29C57 36.4773 54.0898 43.5089 48.7993 48.7993C43.5089 54.0814 36.4773 57 29 57ZM29 1.58877C21.6825 1.58877 14.7939 4.44007 9.62121 9.6128C4.44007 14.7939 1.58877 21.6741 1.58877 29C1.58877 36.3175 4.44007 43.2061 9.6128 48.3788C14.7855 53.5515 21.6741 56.4028 28.9916 56.4028C36.3091 56.4028 43.1977 53.5515 48.3704 48.3788C53.5431 43.2061 56.3944 36.3175 56.3944 29C56.3944 21.6825 53.5431 14.7939 48.3704 9.62121C43.2061 4.44007 36.3175 1.58877 29 1.58877Z" fill="url(#paint0_linear_45_2205)" stroke="url(#paint1_linear_45_2205)" stroke-width="0.5"/>
<path d="M13.6165 45.0899L16.0304 36.0902C14.7351 33.7184 14.0538 31.0521 14.0538 28.369C14.0538 19.4282 21.3209 12.1611 30.2617 12.1611C39.2025 12.1611 46.4696 19.4282 46.4696 28.369C46.4696 37.3098 39.2025 44.5769 30.2617 44.5769C27.6291 44.5769 25.0049 43.9208 22.6582 42.6676L13.6165 45.0899ZM30.2533 12.7499C21.6405 12.7499 14.6342 19.7562 14.6342 28.369C14.6342 30.9932 15.3155 33.6006 16.5939 35.9136L16.6528 36.0145L14.4407 44.2573L22.7255 42.0368L22.8264 42.0956C25.1058 43.3321 27.6795 43.9881 30.2533 43.9881C38.8661 43.9881 45.8724 36.9818 45.8724 28.369C45.8724 19.7562 38.8661 12.7499 30.2533 12.7499ZM30.2533 41.5658C27.8898 41.5658 25.56 40.9181 23.5161 39.6985L23.0788 39.4378L17.864 40.834L19.2518 35.6529L18.9826 35.2071C17.721 33.1296 17.0481 30.7661 17.0481 28.3606C17.0481 21.0851 22.9694 15.1638 30.2449 15.1638C37.5203 15.1638 43.4416 21.0851 43.4416 28.3606C43.4585 35.6445 37.5372 41.5658 30.2533 41.5658ZM23.1713 38.807L23.8273 39.1939C25.7871 40.363 28.0076 40.977 30.2617 40.977C37.2175 40.977 42.8697 35.3164 42.8697 28.369C42.8697 21.4132 37.2091 15.761 30.2617 15.761C23.3059 15.761 17.6537 21.4216 17.6537 28.369C17.6537 30.6652 18.2929 32.9277 19.4957 34.9043L19.8994 35.5604L18.7135 40.0013L23.1713 38.807Z" fill="url(#paint2_linear_45_2205)" stroke="url(#paint3_linear_45_2205)" stroke-width="0.5"/>
<path d="M34.2484 35.7455C33.4241 35.7455 32.6924 35.5016 31.9186 35.2408C31.8429 35.2156 31.7588 35.1904 31.6831 35.1651C30.7831 34.8708 29.8411 34.425 28.8906 33.8362C27.1832 32.7933 25.6777 31.397 24.4244 29.6896C24.0628 29.1934 23.7179 28.6719 23.3983 28.1252C22.8768 27.242 22.574 26.5271 22.3974 25.8206C22.3133 25.4673 22.2712 25.1141 22.2628 24.744C22.246 23.3646 22.7927 22.1198 23.76 21.3376C24.5758 20.6731 25.501 20.6983 26.0646 21.0179C26.729 21.3964 27.0907 22.2123 27.3851 22.8683C27.4271 22.9693 27.4692 23.0618 27.5113 23.1459C27.772 23.7179 28.0664 24.458 27.9486 25.1141C27.8477 25.7281 27.4187 26.2243 27.0487 26.6617L26.9477 26.7794C26.7543 27.0065 26.7711 27.1159 26.8888 27.2925L26.8973 27.3009C28.1 29.3027 29.7822 30.7494 31.9018 31.5905C32.1204 31.6746 32.2046 31.6325 32.2971 31.5232C32.4064 31.3886 32.5158 31.212 32.6335 31.0185C32.9279 30.5391 33.2643 30.0008 33.7606 29.799C34.6269 29.4457 35.5269 29.8662 36.3007 30.3288C36.3932 30.3877 36.4941 30.4466 36.6035 30.5055C37.2511 30.8671 38.0586 31.3213 38.2268 32.0867C38.3109 32.4736 38.2604 32.911 38.0754 33.3568C37.596 34.5175 36.41 35.4091 34.9717 35.6782C34.7447 35.7287 34.4923 35.7455 34.2484 35.7455ZM25.2235 21.3964C24.8282 21.3964 24.416 21.5731 24.1385 21.8002C23.3142 22.473 22.8432 23.5496 22.86 24.744C22.86 25.0636 22.9021 25.3832 22.9778 25.686C23.1376 26.3337 23.4235 26.9981 23.9114 27.8392C24.2142 28.3607 24.5506 28.8738 24.9039 29.3532C26.115 30.9933 27.5617 32.3391 29.2018 33.34C30.1186 33.8951 31.0102 34.324 31.8681 34.61C31.9522 34.6352 32.0279 34.6605 32.112 34.6941C33.0793 35.0137 33.912 35.2913 34.9045 35.1063C36.1493 34.8708 37.167 34.1138 37.5707 33.1381C37.6632 32.911 37.7642 32.5577 37.6885 32.2213C37.5791 31.7167 36.8979 31.3382 36.3511 31.027C36.2334 30.9597 36.1325 30.9008 36.0315 30.8419C35.3839 30.455 34.6353 30.0933 34.0129 30.3457C33.6933 30.4802 33.4073 30.9344 33.1634 31.3298C33.0372 31.54 32.9111 31.7335 32.7765 31.8933C32.5915 32.1288 32.2466 32.3559 31.6999 32.1372C29.4542 31.2456 27.6795 29.7233 26.4094 27.6037C26.1403 27.1916 26.1739 26.7963 26.5103 26.3925L26.6113 26.2748C26.9309 25.8963 27.301 25.4673 27.3767 25.0131C27.4608 24.5085 27.2085 23.8777 26.9814 23.3898C26.9393 23.2973 26.8973 23.2048 26.8552 23.1039C26.5945 22.5235 26.2748 21.8002 25.7786 21.5226C25.6104 21.4385 25.4169 21.3964 25.2235 21.3964Z" fill="url(#paint4_linear_45_2205)" stroke="url(#paint5_linear_45_2205)" stroke-width="0.5"/>
<defs>
<linearGradient id="paint0_linear_45_2205" x1="13.1407" y1="11.7331" x2="28.3273" y2="46.7764" gradientUnits="userSpaceOnUse">
<stop offset="0.114" stop-color="#FFE600"/>
<stop offset="0.8753" stop-color="#C4F23E"/>
</linearGradient>
<linearGradient id="paint1_linear_45_2205" x1="13.1407" y1="11.7331" x2="28.3273" y2="46.7764" gradientUnits="userSpaceOnUse">
<stop offset="0.114" stop-color="#FFE600"/>
<stop offset="0.8753" stop-color="#C4F23E"/>
</linearGradient>
<linearGradient id="paint2_linear_45_2205" x1="20.739" y1="18.4723" x2="29.6829" y2="39.0633" gradientUnits="userSpaceOnUse">
<stop offset="0.114" stop-color="#FFE600"/>
<stop offset="0.8753" stop-color="#C4F23E"/>
</linearGradient>
<linearGradient id="paint3_linear_45_2205" x1="20.739" y1="18.4723" x2="29.6829" y2="39.0633" gradientUnits="userSpaceOnUse">
<stop offset="0.114" stop-color="#FFE600"/>
<stop offset="0.8753" stop-color="#C4F23E"/>
</linearGradient>
<linearGradient id="paint4_linear_45_2205" x1="25.732" y1="23.6647" x2="29.5951" y2="33.2101" gradientUnits="userSpaceOnUse">
<stop offset="0.114" stop-color="#FFE600"/>
<stop offset="0.8753" stop-color="#C4F23E"/>
</linearGradient>
<linearGradient id="paint5_linear_45_2205" x1="25.732" y1="23.6647" x2="29.5951" y2="33.2101" gradientUnits="userSpaceOnUse">
<stop offset="0.114" stop-color="#FFE600"/>
<stop offset="0.8753" stop-color="#C4F23E"/>
</linearGradient>
</defs>
</svg>
